<svg width="16" height="14" viewBox="0 0 16 14" fill="none" xmlns="http://www.w3.org/2000/svg">
<path fill-rule="evenodd" clip-rule="evenodd" d="M9.48882 2.54238L8.19452 3.8761L6.89907 2.5412C5.75304 1.35634 3.96078 1.22359 2.80447 2.20878C1.41182 3.39777 1.33469 5.54565 2.58418 6.83788L8.19306 12.6294L13.8019 6.83788C15.0541 5.54569 14.9773 3.39759 13.5843 2.20859M7.53004 13.3822L1.86584 7.53358C0.220732 5.83285 0.317331 3.01685 2.15563 1.44785C3.716 0.118122 6.01866 0.314508 7.49559 1.72449C7.53701 1.76403 7.57777 1.80452 7.61786 1.84596L8.19452 2.44019L8.77119 1.84596C8.81131 1.80456 8.85211 1.7641 8.89356 1.7246C10.373 0.314519 12.673 0.118086 14.2334 1.44785C16.0717 3.01685 16.1683 5.83285 14.5203 7.53358L8.85608 13.3822C8.49017 13.7598 7.89594 13.7598 7.53004 13.3822ZM9.48882 2.54238C10.6383 1.35636 12.4284 1.22406 13.5843 2.20859Z" fill="black"/>
</svg>
